<svg xmlns="http://www.w3.org/2000/svg" xmlns:xlink="http://www.w3.org/1999/xlink" width="1920" zoomAndPan="magnify" viewBox="0 0 1440 809.999993" height="1080" preserveAspectRatio="xMidYMid meet" version="1.0"><defs><g/></defs><path fill="#000000" d="M 503.246094 280.765625 C 503.246094 280.765625 386.664062 280.765625 386.664062 280.765625 C 386.664062 280.765625 386.664062 131.375 386.664062 131.375 C 386.664062 131.375 503.246094 131.375 503.246094 131.375 C 503.246094 131.375 503.246094 280.765625 503.246094 280.765625 Z M 503.246094 280.765625 " fill-opacity="1" fill-rule="nonzero"/><path fill="#000000" d="M 4.246094 246.128906 C 4.246094 246.128906 503.246094 246.128906 503.246094 246.128906 C 503.246094 246.128906 503.246094 323.851562 503.246094 323.851562 C 503.246094 323.851562 40.292969 323.851562 40.292969 323.851562 C 40.292969 323.851562 4.246094 246.128906 4.246094 246.128906 Z M 4.246094 246.128906 " fill-opacity="1" fill-rule="nonzero"/><path fill="#000000" d="M 503.246094 608.640625 C 503.246094 608.640625 381.59375 608.640625 381.59375 608.640625 C 381.59375 608.640625 381.59375 247.625 381.59375 247.625 C 381.59375 247.625 503.246094 247.625 503.246094 247.625 C 503.246094 247.625 503.246094 608.640625 503.246094 608.640625 Z M 503.246094 608.640625 " fill-opacity="1" fill-rule="nonzero"/><path fill="#000000" d="M 393.421875 523.222656 C 393.421875 523.222656 130.40625 523.222656 130.40625 523.222656 C 130.40625 523.222656 130.40625 444.453125 130.40625 444.453125 C 130.40625 444.453125 393.421875 444.453125 393.421875 444.453125 C 393.421875 444.453125 393.421875 523.222656 393.421875 523.222656 Z M 393.421875 523.222656 " fill-opacity="1" fill-rule="nonzero"/><path fill="#000000" d="M 111.820312 446.066406 C 76.792969 452.773438 39.167969 523.226562 92.671875 590.808594 C 147.800781 660.445312 208.691406 631.921875 226.714844 609.394531 C 244.738281 586.867188 230.65625 529.421875 191.796875 487.746094 C 152.933594 446.066406 138.289062 441 111.820312 446.066406 Z M 111.820312 446.066406 " fill-opacity="1" fill-rule="nonzero"/><path fill="#000000" d="M 52.683594 640.371094 C 52.683594 640.371094 141.105469 763.917969 274.585938 725.414062 C 381.445312 694.589844 381.59375 607.140625 381.59375 607.140625 C 381.59375 607.140625 503.246094 607.140625 503.246094 607.140625 C 503.246094 607.140625 511.980469 690.878906 434.535156 755.214844 C 363.007812 814.636719 236.289062 817.894531 153.496094 772.585938 C 81.648438 733.269531 61.695312 684.863281 52.683594 640.371094 Z M 52.683594 640.371094 " fill-opacity="1" fill-rule="nonzero"/><path fill="#000000" d="M 386.664062 131.375 C 388.070312 122.644531 399.054688 61.679688 499.304688 52.105469 C 572.921875 45.074219 603.214844 88.289062 603.214844 88.289062 C 603.214844 88.289062 572.800781 80.265625 535.066406 98.570312 C 507.042969 112.164062 503.246094 131.375 503.246094 131.375 C 503.246094 131.375 503.246094 173.476562 503.246094 173.476562 C 503.246094 173.476562 386.664062 170.378906 386.664062 170.378906 C 386.664062 170.378906 386.664062 131.375 386.664062 131.375 Z M 386.664062 131.375 " fill-opacity="1" fill-rule="nonzero"/><path fill="#000000" d="M 383.742188 724.679688 C 379.046875 727.179688 373.210938 725.394531 370.714844 720.695312 C 368.214844 716 370 710.164062 374.699219 707.667969 C 379.394531 705.167969 385.230469 706.953125 387.726562 711.652344 C 390.226562 716.347656 388.441406 722.183594 383.742188 724.679688 Z M 383.742188 724.679688 " fill-opacity="1" fill-rule="nonzero"/><path fill="#000000" d="M 474.933594 219.285156 C 471.628906 221.042969 467.523438 219.789062 465.765625 216.480469 C 464.007812 213.175781 465.261719 209.070312 468.570312 207.3125 C 471.875 205.554688 475.980469 206.808594 477.738281 210.117188 C 479.496094 213.421875 478.242188 217.527344 474.933594 219.285156 Z M 474.933594 219.285156 " fill-opacity="1" fill-rule="nonzero"/><path fill="#000000" d="M 338.011719 277.257812 C 334.703125 279.015625 330.597656 277.761719 328.839844 274.457031 C 327.082031 271.148438 328.339844 267.042969 331.644531 265.285156 C 334.949219 263.527344 339.054688 264.785156 340.8125 268.089844 C 342.570312 271.394531 341.316406 275.5 338.011719 277.257812 Z M 338.011719 277.257812 " fill-opacity="1" fill-rule="nonzero"/><path fill="#000000" d="M 444.59375 469.550781 C 441.289062 471.308594 437.183594 470.054688 435.425781 466.746094 C 433.667969 463.441406 434.921875 459.335938 438.226562 457.578125 C 441.535156 455.820312 445.640625 457.074219 447.398438 460.382812 C 449.15625 463.6875 447.898438 467.792969 444.59375 469.550781 Z M 444.59375 469.550781 " fill-opacity="1" fill-rule="nonzero"/><path fill="#000000" d="M 145.09375 560.730469 C 141.789062 562.488281 137.683594 561.234375 135.925781 557.925781 C 134.167969 554.621094 135.421875 550.515625 138.726562 548.757812 C 142.035156 547 146.136719 548.253906 147.898438 551.5625 C 149.65625 554.867188 148.398438 558.972656 145.09375 560.730469 Z M 145.09375 560.730469 " fill-opacity="1" fill-rule="nonzero"/><path fill="#000000" d="M 243.328125 82.136719 C 243.328125 101.902344 222.054688 117.921875 195.808594 117.921875 C 169.5625 117.921875 148.289062 101.902344 148.289062 82.136719 C 148.289062 62.371094 169.5625 46.347656 195.808594 46.347656 C 222.054688 46.347656 243.328125 62.371094 243.328125 82.136719 Z M 243.328125 82.136719 " fill-opacity="1" fill-rule="nonzero"/><path fill="#000000" d="M 199.972656 88.371094 C 196.667969 90.128906 192.5625 88.875 190.804688 85.570312 C 189.046875 82.265625 190.300781 78.160156 193.605469 76.402344 C 196.914062 74.644531 201.019531 75.898438 202.777344 79.203125 C 204.535156 82.511719 203.28125 86.613281 199.972656 88.371094 Z M 199.972656 88.371094 " fill-opacity="1" fill-rule="nonzero"/><path fill="#000000" d="M 195.808594 157.078125 C 99.5 151.164062 58.316406 77.105469 58.316406 77.105469 C 67.046875 213.398438 195.808594 202.980469 195.808594 202.980469 C 195.808594 202.980469 324.570312 213.398438 333.300781 77.105469 C 333.300781 77.105469 292.117188 151.164062 195.808594 157.078125 Z M 195.808594 157.078125 " fill-opacity="1" fill-rule="nonzero"/><path fill="#000000" d="M 203.15625 190.597656 C 196.546875 194.113281 188.335938 191.605469 184.820312 184.992188 C 181.304688 178.378906 183.8125 170.171875 190.425781 166.65625 C 197.039062 163.140625 205.246094 165.648438 208.765625 172.261719 C 212.28125 178.871094 209.769531 187.082031 203.15625 190.597656 Z M 203.15625 190.597656 " fill-opacity="1" fill-rule="nonzero"/><path fill="#000000" d="M 143.015625 174.179688 C 140.46875 175.535156 137.304688 174.566406 135.953125 172.019531 C 134.597656 169.472656 135.566406 166.3125 138.109375 164.957031 C 140.65625 163.605469 143.820312 164.570312 145.171875 167.117188 C 146.527344 169.664062 145.5625 172.824219 143.015625 174.179688 Z M 143.015625 174.179688 " fill-opacity="1" fill-rule="nonzero"/><path fill="#000000" d="M 105.210938 152.46875 C 100.117188 155.175781 93.792969 153.242188 91.085938 148.148438 C 88.378906 143.054688 90.308594 136.730469 95.402344 134.023438 C 100.496094 131.3125 106.820312 133.25 109.527344 138.339844 C 112.238281 143.433594 110.304688 149.757812 105.210938 152.46875 Z M 105.210938 152.46875 " fill-opacity="1" fill-rule="nonzero"/><path fill="#000000" d="M 250.566406 174.179688 C 253.113281 175.535156 256.277344 174.566406 257.628906 172.019531 C 258.984375 169.472656 258.015625 166.3125 255.46875 164.957031 C 252.925781 163.605469 249.761719 164.570312 248.40625 167.117188 C 247.054688 169.664062 248.019531 172.824219 250.566406 174.179688 Z M 250.566406 174.179688 " fill-opacity="1" fill-rule="nonzero"/><path fill="#000000" d="M 288.371094 152.46875 C 293.464844 155.175781 299.789062 153.242188 302.496094 148.148438 C 305.203125 143.054688 303.269531 136.730469 298.175781 134.023438 C 293.085938 131.3125 286.761719 133.25 284.050781 138.339844 C 281.34375 143.433594 283.277344 149.757812 288.371094 152.46875 Z M 288.371094 152.46875 " fill-opacity="1" fill-rule="nonzero"/><path fill="#000000" d="M 431.183594 321.769531 C 421.789062 326.765625 410.121094 323.199219 405.125 313.804688 C 400.128906 304.40625 403.695312 292.742188 413.089844 287.746094 C 422.488281 282.75 434.15625 286.316406 439.152344 295.710938 C 444.148438 305.105469 440.582031 316.773438 431.183594 321.769531 Z M 431.183594 321.769531 " fill-opacity="1" fill-rule="nonzero"/><path fill="#000000" d="M 520.480469 89.871094 C 513.867188 93.386719 505.65625 90.878906 502.140625 84.265625 C 498.625 77.65625 501.132812 69.445312 507.746094 65.929688 C 514.359375 62.414062 522.570312 64.921875 526.085938 71.535156 C 529.601562 78.144531 527.089844 86.355469 520.480469 89.871094 Z M 520.480469 89.871094 " fill-opacity="1" fill-rule="nonzero"/><path fill="#000000" d="M 488.476562 639.144531 C 481.863281 642.660156 473.652344 640.148438 470.136719 633.539062 C 466.621094 626.925781 469.128906 618.714844 475.742188 615.199219 C 482.355469 611.683594 490.566406 614.195312 494.082031 620.808594 C 497.597656 627.417969 495.085938 635.628906 488.476562 639.144531 Z M 488.476562 639.144531 " fill-opacity="1" fill-rule="nonzero"/><path fill="#000000" d="M 330.855469 510.207031 C 324.242188 513.722656 316.03125 511.210938 312.519531 504.601562 C 309 497.988281 311.511719 489.777344 318.125 486.261719 C 324.734375 482.746094 332.945312 485.257812 336.460938 491.867188 C 339.976562 498.480469 337.46875 506.691406 330.855469 510.207031 Z M 330.855469 510.207031 " fill-opacity="1" fill-rule="nonzero"/><path fill="#000000" d="M 121.382812 508.511719 C 114.769531 512.027344 106.5625 509.515625 103.046875 502.902344 C 99.527344 496.292969 102.039062 488.082031 108.652344 484.566406 C 115.261719 481.050781 123.472656 483.558594 126.988281 490.171875 C 130.503906 496.785156 127.996094 504.996094 121.382812 508.511719 Z M 121.382812 508.511719 " fill-opacity="1" fill-rule="nonzero"/><path fill="#000000" d="M 161.839844 294.28125 C 155.226562 297.796875 147.015625 295.289062 143.5 288.675781 C 139.984375 282.0625 142.492188 273.851562 149.105469 270.335938 C 155.71875 266.820312 163.929688 269.332031 167.445312 275.941406 C 170.960938 282.554688 168.449219 290.765625 161.839844 294.28125 Z M 161.839844 294.28125 " fill-opacity="1" fill-rule="nonzero"/><path fill="#000000" d="M 278.910156 790.886719 C 272.296875 794.402344 264.085938 791.890625 260.570312 785.28125 C 257.054688 778.667969 259.566406 770.457031 266.179688 766.941406 C 272.789062 763.425781 281 765.9375 284.515625 772.546875 C 288.03125 779.160156 285.523438 787.371094 278.910156 790.886719 Z M 278.910156 790.886719 " fill-opacity="1" fill-rule="nonzero"/><path fill="#000000" d="M 399.332031 495.574219 C 397.425781 458.484375 392.09375 389.699219 419.4375 361.414062 C 422.460938 358.335938 426.230469 355.394531 430.746094 353.171875 C 430.746094 353.171875 435.558594 350.808594 435.558594 350.808594 C 444.28125 346.523438 454.824219 350.121094 459.109375 358.84375 C 464.898438 370.140625 456.253906 384.167969 443.644531 384.199219 C 437.226562 385.105469 431.984375 393.847656 428.539062 399.816406 C 415.972656 423.753906 410.210938 452.453125 405.46875 479.304688 C 404.777344 483.535156 402.589844 491.933594 401.949219 496.179688 C 401.4375 499.242188 399.371094 498.75 399.332031 495.574219 Z M 399.332031 495.574219 " fill-opacity="1" fill-rule="nonzero"/><path fill="#000000" d="M 463.785156 437.414062 C 476.476562 424.734375 481.691406 405.90625 482.40625 388.234375 C 483.1875 367.957031 477.523438 347.957031 469.339844 329.523438 C 466.242188 322.554688 462.242188 314.945312 458.480469 308.363281 C 445.027344 285.011719 431.820312 261.324219 420.246094 236.847656 C 406.40625 206.738281 391.214844 171.457031 394.078125 137.246094 C 395.25 125.835938 399.160156 114.074219 406.488281 104.792969 C 414.460938 94.621094 424.515625 86.832031 437.847656 84.367188 C 452.078125 81.589844 467.480469 87.546875 476.746094 98.414062 C 491.148438 114.535156 491.53125 139.144531 479.753906 156.667969 C 474.855469 164.738281 464.203125 167.203125 456.285156 162.039062 C 448.140625 156.796875 446.195312 145.542969 452.082031 137.859375 C 455.429688 133.457031 456.570312 128.917969 455.863281 124.410156 C 455.121094 120.125 452.21875 115.820312 448.3125 114.027344 C 440.910156 110.339844 432.488281 116.207031 427.542969 121.863281 C 414.738281 136.644531 417.753906 159.511719 421.292969 177.730469 C 430.632812 219.648438 450.292969 259.960938 469.027344 298.757812 C 484.988281 330.570312 496.976562 367.550781 487.816406 403.144531 C 485.3125 412.515625 481.140625 420.160156 475.511719 428.0625 C 472.65625 431.988281 468.828125 436.261719 465.015625 439.460938 C 464.082031 440.242188 463.570312 440.875 462.789062 439.945312 C 462.027344 439.039062 462.917969 438.199219 463.785156 437.414062 Z M 463.785156 437.414062 " fill-opacity="1" fill-rule="nonzero"/><path fill="#000000" d="M 378.574219 769.507812 C 419.820312 747.191406 444.65625 703.332031 441.636719 656.511719 C 441.300781 648.996094 440.273438 641.503906 438.855469 634.09375 C 435.863281 618.769531 432.53125 603.472656 429.535156 588.082031 C 426.554688 571.933594 423.390625 556.257812 424.390625 539.320312 C 424.976562 530.21875 427.496094 520.671875 432.621094 512.78125 C 435.234375 508.6875 438.433594 505.039062 441.878906 501.90625 C 443.953125 499.988281 446.253906 498.316406 448.789062 497.03125 C 469.675781 486.703125 491.824219 502.117188 493.300781 524.371094 C 494.539062 538.96875 488.230469 553.285156 480.984375 564.6875 C 477.363281 570.433594 469.765625 572.152344 464.023438 568.53125 C 458.042969 564.789062 456.46875 556.65625 460.605469 550.945312 C 464.605469 545.390625 467.882812 539.511719 469.558594 533.847656 C 470.988281 529.003906 471.453125 523.761719 469.320312 519.597656 C 467.617188 516.242188 464.078125 514.210938 460.363281 514.554688 C 458.375 514.714844 456.460938 515.628906 454.945312 516.941406 C 450.046875 520.898438 446.542969 525.574219 444.441406 531.503906 C 441.0625 541.414062 441.402344 551.875 442.105469 562.75 C 444.007812 585.851562 448.308594 608.964844 451.382812 632.035156 C 457.453125 672.105469 447.132812 715.144531 418.386719 744.492188 C 410.121094 753.1875 400.742188 760.707031 390.484375 766.863281 C 387.054688 768.902344 383.617188 770.789062 379.867188 772.425781 C 379.058594 772.777344 378.121094 772.40625 377.769531 771.601562 C 377.417969 770.796875 377.785156 769.867188 378.574219 769.507812 Z M 378.574219 769.507812 " fill-opacity="1" fill-rule="nonzero"/><path fill="#000000" d="M 160.589844 464.429688 C 149.847656 489.292969 149.195312 521.617188 167.898438 543.082031 C 174.757812 550.542969 182.492188 557.347656 189.921875 564.15625 C 194.117188 568.015625 198.25 571.671875 201.773438 575.855469 C 203.175781 577.605469 204.875 579.746094 204.851562 581.5 C 204.820312 583.777344 203.648438 586.019531 200.230469 587.570312 C 197.1875 588.945312 194.664062 588.105469 192.792969 585.820312 C 191.792969 584.523438 191.148438 582.875 190.980469 581.011719 C 190.40625 574.636719 184.769531 569.929688 178.390625 570.503906 C 172.015625 571.078125 167.308594 576.714844 167.882812 583.09375 C 168.816406 589.824219 171.96875 596.289062 176.984375 601.199219 C 181.589844 605.667969 187.683594 608.648438 194.199219 609.136719 C 203.777344 610.015625 213.101562 604.777344 218.21875 596.898438 C 224.175781 588.683594 225.335938 578.542969 219.449219 569.964844 C 216.613281 565.714844 213.324219 562.703125 209.734375 559.585938 C 203.441406 554.273438 197.125 549.738281 190.796875 544.75 C 186.34375 541.222656 181.84375 537.71875 177.671875 533.882812 C 171.328125 527.789062 167.160156 520.027344 164.875 511.261719 C 161.316406 497.101562 158.25 478.261719 163.039062 464.382812 C 164.480469 460.316406 162.582031 460.488281 160.589844 464.429688 Z M 160.589844 464.429688 " fill-opacity="1" fill-rule="nonzero"/><path fill="#000000" d="M 156.878906 623.527344 C 134.417969 612.546875 92.183594 593.234375 84.457031 567.90625 C 83.628906 565.121094 83.128906 561.941406 83.292969 558.558594 C 83.292969 558.558594 83.472656 554.953125 83.472656 554.953125 C 83.796875 548.417969 89.355469 543.382812 95.890625 543.707031 C 104.429688 543.988281 109.867188 553.65625 105.769531 561.089844 C 104.207031 565.164062 107.644531 571.105469 110.035156 575.082031 C 120.027344 590.292969 135.042969 603.050781 149.300781 614.605469 C 151.566406 616.394531 155.796875 620.421875 158.089844 622.1875 C 159.726562 623.488281 158.761719 624.542969 156.878906 623.527344 Z M 156.878906 623.527344 " fill-opacity="1" fill-rule="nonzero"/><path fill="#000000" d="M 375.003906 485.824219 C 355.402344 459.492188 328.878906 446.039062 296.441406 457.566406 C 284.488281 461.785156 273.753906 468.609375 263.941406 476.304688 C 254.699219 483.535156 230.667969 500.992188 219.304688 494.667969 C 218.140625 493.808594 217.183594 492.4375 217.058594 491 C 217.042969 490.929688 217.070312 490.921875 217.078125 490.910156 C 217.070312 490.925781 217.109375 490.8125 217.117188 490.757812 C 217.152344 490.40625 217.234375 490.042969 217.355469 489.707031 C 218.527344 485.820312 222.433594 483.96875 226.304688 484.800781 C 226.828125 484.925781 227.839844 485.015625 228.390625 485.097656 C 234.574219 485.890625 240.230469 481.519531 241.023438 475.335938 C 241.816406 469.152344 237.445312 463.496094 231.261719 462.703125 C 223.714844 461.753906 215.90625 462.984375 209.46875 467.332031 C 193.640625 478.308594 192.421875 501.304688 210.214844 510.988281 C 220.527344 516.316406 232.410156 513.621094 242.148438 508.886719 C 251.539062 504.308594 259.5625 498.214844 267.289062 491.5625 C 270.496094 488.824219 274.671875 484.878906 277.886719 482.085938 C 284.777344 476.179688 292.289062 471.113281 300.363281 467.433594 C 317.261719 459.601562 335.136719 460.261719 351.300781 470.019531 C 359.332031 474.78125 367.367188 480.070312 373.710938 487.027344 C 375.117188 488.582031 376.449219 487.636719 375.003906 485.824219 Z M 375.003906 485.824219 " fill-opacity="1" fill-rule="nonzero"/><path fill="#000000" d="M 161.21875 316.9375 C 136.285156 315.09375 89.898438 312.878906 73.304688 292.238281 C 71.5 289.960938 69.851562 287.199219 68.75 283.992188 C 68.75 283.992188 67.574219 280.582031 67.574219 280.582031 C 65.445312 274.394531 68.734375 267.652344 74.921875 265.523438 C 82.949219 262.609375 91.59375 269.5625 90.554688 277.984375 C 90.621094 282.347656 96.019531 286.585938 99.714844 289.386719 C 114.652344 299.789062 133.332031 306.046875 150.867188 311.472656 C 153.636719 312.289062 159.0625 314.453125 161.84375 315.238281 C 163.847656 315.839844 163.34375 317.175781 161.21875 316.9375 Z M 161.21875 316.9375 " fill-opacity="1" fill-rule="nonzero"/><path fill="#000000" d="M 384.914062 289.234375 C 362.703125 313.40625 334.9375 324.058594 303.859375 309.246094 C 292.402344 303.820312 282.429688 295.925781 273.464844 287.257812 C 265.011719 279.113281 242.910156 259.273438 230.957031 264.394531 C 229.710938 265.125 228.617188 266.394531 228.34375 267.808594 C 228.320312 267.878906 228.347656 267.890625 228.351562 267.902344 C 228.347656 267.886719 228.375 268.003906 228.378906 268.058594 C 228.375 268.410156 228.421875 268.78125 228.503906 269.125 C 229.269531 273.117188 232.964844 275.355469 236.902344 274.925781 C 237.433594 274.859375 238.449219 274.875 239.007812 274.847656 C 245.238281 274.695312 250.414062 279.625 250.566406 285.859375 C 250.71875 292.089844 245.789062 297.265625 239.554688 297.417969 C 231.949219 297.585938 224.308594 295.558594 218.355469 290.570312 C 203.738281 278.019531 204.898438 255.023438 223.59375 247.222656 C 234.402344 242.984375 245.945312 246.890625 255.144531 252.601562 C 264.011719 258.125 271.363281 265.015625 278.363281 272.429688 C 281.269531 275.480469 285.019531 279.835938 287.929688 282.945312 C 294.175781 289.53125 301.121094 295.34375 308.773438 299.835938 C 324.777344 309.367188 342.625 310.550781 359.707031 302.511719 C 368.1875 298.601562 376.726562 294.171875 383.753906 287.90625 C 385.3125 286.507812 386.539062 287.582031 384.914062 289.234375 Z M 384.914062 289.234375 " fill-opacity="1" fill-rule="nonzero"/><path fill="#000000" d="M 319.5625 779.28125 C 316.800781 770.859375 309.726562 762.683594 301.609375 757.914062 C 283.09375 746.863281 257.652344 750.394531 237.457031 756.746094 C 197.386719 771.027344 160.914062 764.589844 128.703125 736.703125 C 109.722656 720.464844 94.542969 700.601562 80.746094 680.011719 C 80.613281 679.816406 80.664062 679.546875 80.863281 679.414062 C 81.054688 679.289062 81.3125 679.335938 81.445312 679.515625 C 109.617188 716.371094 147.539062 758.378906 198.082031 754.640625 C 211.320312 753.699219 224.378906 749.773438 236.609375 744.371094 C 256.507812 736.015625 278.859375 730.871094 300.386719 736.3125 C 316.515625 740.339844 330.980469 750.921875 339.648438 765.222656 C 340.679688 766.929688 341.683594 768.757812 342.484375 770.617188 C 345.0625 777.027344 341.742188 784.359375 335.238281 786.675781 C 328.867188 788.964844 321.847656 785.652344 319.5625 779.28125 Z M 319.5625 779.28125 " fill-opacity="1" fill-rule="nonzero"/><g fill="#000000" fill-opacity="1"><g transform="translate(614.795423, 359.18011)"><g><path d="M 84.828125 -3.734375 L 70.5 -46.140625 L 31.609375 -46.140625 L 16.5 -3.734375 L 31.21875 -3.734375 L 31.21875 0 L 1.171875 0 L 1.171875 -3.734375 L 10.40625 -3.734375 L 60.484375 -138.640625 L 76.59375 -138.640625 L 126.078125 -3.734375 L 135.109375 -3.734375 L 135.109375 0 L 70.890625 0 L 70.890625 -3.734375 Z M 51.84375 -101.921875 L 33.390625 -50.46875 L 68.921875 -50.46875 Z M 51.84375 -101.921875 "/></g></g></g><g fill="#000000" fill-opacity="1"><g transform="translate(751.077019, 359.18011)"><g><path d="M 4.125 -137.46875 L 65.390625 -137.46875 L 65.390625 -133.734375 L 54 -133.734375 L 54 -72.859375 L 93.078125 -72.859375 L 93.078125 -133.734375 L 81.5 -133.734375 L 81.5 -137.46875 L 142.953125 -137.46875 L 142.953125 -133.734375 L 131.375 -133.734375 L 131.375 -3.734375 L 142.953125 -3.734375 L 142.953125 0 L 81.5 0 L 81.5 -3.734375 L 93.078125 -3.734375 L 93.078125 -67.75 L 54 -67.75 L 54 -3.734375 L 65.390625 -3.734375 L 65.390625 0 L 4.125 0 L 4.125 -3.734375 L 15.703125 -3.734375 L 15.703125 -133.734375 L 4.125 -133.734375 Z M 4.125 -137.46875 "/></g></g></g><g fill="#000000" fill-opacity="1"><g transform="translate(898.159, 359.18011)"><g><path d="M 84.828125 -3.734375 L 70.5 -46.140625 L 31.609375 -46.140625 L 16.5 -3.734375 L 31.21875 -3.734375 L 31.21875 0 L 1.171875 0 L 1.171875 -3.734375 L 10.40625 -3.734375 L 60.484375 -138.640625 L 76.59375 -138.640625 L 126.078125 -3.734375 L 135.109375 -3.734375 L 135.109375 0 L 70.890625 0 L 70.890625 -3.734375 Z M 51.84375 -101.921875 L 33.390625 -50.46875 L 68.921875 -50.46875 Z M 51.84375 -101.921875 "/></g></g></g><g fill="#000000" fill-opacity="1"><g transform="translate(1034.440596, 359.18011)"><g><path d="M 124.890625 -137.46875 L 126.859375 -88.171875 L 123.125 -88.171875 C 117.363281 -105.585938 112.257812 -117.46875 107.8125 -123.8125 C 103.363281 -130.164062 96.945312 -133.34375 88.5625 -133.34375 L 86.203125 -133.34375 L 86.203125 -4.125 L 102.90625 -4.125 L 102.90625 0 L 31.21875 0 L 31.21875 -4.125 L 47.921875 -4.125 L 47.921875 -133.34375 L 45.359375 -133.34375 C 36.984375 -133.34375 30.503906 -130.035156 25.921875 -123.421875 C 21.335938 -116.804688 16.296875 -105.054688 10.796875 -88.171875 L 7.0625 -88.171875 L 9.03125 -137.46875 Z M 124.890625 -137.46875 "/></g></g></g><g fill="#000000" fill-opacity="1"><g transform="translate(1168.562084, 359.18011)"><g><path d="M 84.828125 -3.734375 L 70.5 -46.140625 L 31.609375 -46.140625 L 16.5 -3.734375 L 31.21875 -3.734375 L 31.21875 0 L 1.171875 0 L 1.171875 -3.734375 L 10.40625 -3.734375 L 60.484375 -138.640625 L 76.59375 -138.640625 L 126.078125 -3.734375 L 135.109375 -3.734375 L 135.109375 0 L 70.890625 0 L 70.890625 -3.734375 Z M 51.84375 -101.921875 L 33.390625 -50.46875 L 68.921875 -50.46875 Z M 51.84375 -101.921875 "/></g></g></g><g fill="#000000" fill-opacity="1"><g transform="translate(614.807142, 578.049807)"><g><path d="M 63.421875 -41.949219 C 72.441406 -41.949219 75.449219 -34.503906 75.449219 -22.621094 L 75.449219 -15.320312 C 75.449219 -13.316406 73.875 -11.453125 71.726562 -11.167969 C 70.582031 -11.023438 69.578125 -10.878906 68.289062 -11.023438 C 49.964844 -11.023438 35.933594 -31.210938 36.078125 -57.265625 C 36.222656 -76.59375 44.238281 -89.050781 56.695312 -89.050781 C 66.574219 -89.050781 74.589844 -81.03125 74.589844 -71.152344 C 74.589844 -67.863281 73.730469 -64.855469 72.011719 -62.132812 C 75.59375 -57.554688 80.601562 -54.976562 86.617188 -54.976562 C 97.210938 -54.976562 105.226562 -62.5625 105.226562 -72.871094 C 105.226562 -89.480469 85.183594 -102.652344 59.84375 -102.792969 C 27.773438 -103.082031 6.15625 -82.464844 5.871094 -50.539062 C 5.726562 -18.753906 27.058594 2.71875 59.414062 2.71875 C 80.890625 2.71875 89.335938 -4.722656 89.335938 -4.722656 C 89.335938 -4.722656 95.777344 0.144531 103.367188 0.144531 L 103.367188 -23.335938 C 103.511719 -34.789062 106.375 -41.949219 115.25 -41.949219 L 115.25 -47.53125 L 63.421875 -47.53125 Z M 63.421875 -41.949219 "/></g></g></g><g fill="#000000" fill-opacity="1"><g transform="translate(733.626861, 578.049807)"><g><path d="M 7.160156 -94.777344 C 16.035156 -94.777344 19.042969 -87.476562 19.183594 -76.023438 L 19.183594 -24.195312 C 19.042969 -12.597656 16.035156 -5.441406 7.160156 -5.441406 L 7.160156 0 L 58.984375 0 L 58.984375 -5.441406 C 49.964844 -5.441406 47.101562 -12.886719 47.101562 -24.910156 L 47.101562 -75.304688 C 47.101562 -87.1875 49.964844 -94.777344 58.984375 -94.777344 L 58.984375 -100.21875 L 7.160156 -100.21875 Z M 7.160156 -94.777344 "/></g></g></g><g fill="#000000" fill-opacity="1"><g transform="translate(799.765068, 578.049807)"><g><path d="M 8.589844 -94.777344 C 16.609375 -94.777344 20.472656 -88.765625 20.617188 -76.023438 L 20.617188 -24.195312 C 20.472656 -11.308594 16.609375 -5.441406 8.589844 -5.441406 L 8.589844 0 L 60.417969 0 L 60.417969 -5.441406 C 52.257812 -5.441406 48.535156 -11.453125 48.535156 -24.910156 L 48.535156 -38.226562 C 48.535156 -39.945312 49.824219 -41.230469 51.398438 -41.089844 C 63.566406 -40.660156 69.148438 -36.792969 69.148438 -29.347656 L 74.589844 -29.347656 L 74.589844 -63.996094 L 69.148438 -63.996094 C 69.148438 -56.695312 63.28125 -52.6875 51.539062 -52.113281 C 49.824219 -51.96875 48.535156 -53.257812 48.535156 -54.976562 L 48.535156 -86.472656 C 48.535156 -88.046875 49.824219 -89.335938 51.398438 -89.335938 L 66.429688 -89.335938 C 76.738281 -89.335938 84.183594 -83.179688 86.757812 -72.585938 L 92.199219 -72.585938 L 88.765625 -100.21875 L 8.589844 -100.21875 Z M 8.589844 -94.777344 "/></g></g></g><g fill="#000000" fill-opacity="1"><g transform="translate(896.25241, 578.049807)"><g><path d="M 3.578125 -72.730469 L 9.019531 -72.730469 C 11.167969 -81.460938 17.324219 -89.335938 29.347656 -89.335938 L 37.511719 -89.335938 C 39.085938 -89.335938 40.375 -88.191406 40.375 -86.472656 L 40.375 -23.191406 C 40.085938 -12.3125 37.082031 -5.441406 28.492188 -5.441406 L 28.492188 0 L 80.171875 0 L 80.171875 -5.441406 C 71.152344 -5.441406 68.289062 -13.027344 68.289062 -24.910156 L 68.289062 -86.472656 C 68.289062 -88.191406 69.4375 -89.335938 71.152344 -89.335938 L 79.316406 -89.335938 C 91.199219 -89.335938 97.496094 -81.460938 99.644531 -72.730469 L 105.085938 -72.730469 L 101.648438 -100.21875 L 7.015625 -100.21875 Z M 3.578125 -72.730469 "/></g></g></g><g fill="#000000" fill-opacity="1"><g transform="translate(1004.908014, 578.049807)"><g><path d="M 41.660156 -80.746094 C 41.660156 -85.757812 46.957031 -89.050781 54.976562 -89.050781 C 64.855469 -89.050781 70.726562 -84.324219 70.726562 -76.308594 C 70.726562 -72.871094 69.578125 -68.863281 67.433594 -64.996094 C 70.867188 -60.558594 76.59375 -57.839844 82.464844 -57.839844 C 92.773438 -57.839844 100.648438 -65.570312 100.648438 -74.875 C 100.648438 -89.910156 79.886719 -102.792969 56.550781 -102.792969 C 31.640625 -102.792969 9.878906 -90.339844 9.878906 -71.152344 C 9.878906 -43.523438 68.148438 -34.074219 68.148438 -17.894531 C 68.148438 -13.457031 63.851562 -11.167969 55.261719 -11.167969 C 42.808594 -11.167969 36.222656 -16.035156 36.222656 -25.339844 C 36.222656 -28.917969 37.222656 -32.070312 38.941406 -35.21875 C 35.933594 -39.65625 30.496094 -42.378906 23.910156 -42.378906 C 13.171875 -42.378906 5.726562 -34.933594 5.726562 -24.769531 C 5.726562 -8.304688 25.199219 2.578125 51.539062 2.578125 C 79.886719 2.578125 101.078125 -7.445312 101.078125 -26.628906 C 101.078125 -54.546875 41.660156 -63.710938 41.660156 -80.746094 Z M 41.660156 -80.746094 "/></g></g></g></svg>