<?xml version="1.0" standalone="no"?>
<!DOCTYPE svg PUBLIC "-//W3C//DTD SVG 20010904//EN"
 "http://www.w3.org/TR/2001/REC-SVG-20010904/DTD/svg10.dtd">
<svg version="1.0" xmlns="http://www.w3.org/2000/svg"
 width="1056.000000pt" height="625.000000pt" viewBox="0 0 1056.000000 625.000000"
 preserveAspectRatio="xMidYMid meet">

<g transform="translate(0.000000,625.000000) scale(0.100000,-0.100000)"
fill="#000000" stroke="none">
<path d="M0 5435 l0 -815 1602 0 1601 0 -7 443 c-4 302 -3 461 5 502 16 89 58
217 78 240 10 11 25 32 32 46 8 14 41 51 74 81 163 149 384 249 650 294 55 9
102 18 104 20 2 2 -928 4 -2067 4 l-2072 0 0 -815z m1790 705 c106 -37 194
-110 226 -186 48 -114 -29 -269 -162 -329 -75 -33 -142 -45 -257 -45 -105 0
-145 11 -247 64 -79 42 -140 145 -140 239 0 49 5 66 32 105 77 112 156 157
303 172 101 11 171 5 245 -20z m1000 -277 c-21 -159 -106 -370 -207 -511 -127
-178 -324 -315 -548 -380 -155 -46 -464 -68 -592 -42 -26 5 -82 14 -123 20
-117 18 -290 88 -400 163 -203 138 -357 364 -419 617 -38 155 -50 260 -30 260
13 0 24 -15 72 -95 10 -16 33 -43 51 -60 17 -16 46 -50 63 -75 17 -25 55 -62
86 -83 30 -21 58 -44 61 -52 2 -7 26 -26 53 -41 26 -15 61 -38 77 -52 53 -43
168 -94 315 -139 127 -39 161 -45 266 -50 144 -7 338 11 415 38 30 10 62 19
71 19 19 0 168 57 185 71 6 5 42 25 80 45 38 20 97 57 132 81 78 56 282 256
348 343 47 63 49 64 52 36 2 -15 -2 -67 -8 -113z"/>
<path d="M1680 5925 c-129 -57 -255 -113 -280 -124 -25 -11 -62 -27 -82 -36
-21 -8 -38 -19 -38 -23 1 -15 48 -59 86 -80 109 -59 137 -65 267 -60 180 7
273 50 343 158 53 82 36 200 -36 257 -8 7 -17 12 -20 12 -3 0 -111 -47 -240
-104z"/>
<path d="M2740 5823 c0 -6 -17 -13 -38 -16 -28 -5 -51 -21 -97 -67 -33 -33
-65 -60 -71 -60 -6 0 -18 -10 -27 -23 -18 -28 -138 -112 -231 -161 -38 -20
-74 -40 -80 -45 -14 -12 -167 -71 -183 -71 -7 0 -39 -9 -70 -19 -78 -27 -210
-41 -373 -41 -118 0 -150 4 -260 31 l-126 32 -159 -46 c-88 -25 -180 -51 -204
-57 l-44 -11 39 -41 c118 -121 333 -229 514 -257 41 -7 98 -17 127 -23 79 -17
366 -4 488 22 168 36 382 140 489 239 55 52 157 186 198 261 37 67 83 182 114
283 13 44 15 60 6 69 -8 8 -12 8 -12 1z"/>
<path d="M4450 6224 c185 -35 312 -86 412 -165 27 -21 53 -39 56 -39 12 0 102
-88 102 -99 0 -7 -52 -11 -157 -11 -117 -1 -168 -5 -198 -16 -22 -9 -58 -19
-80 -24 -101 -22 -265 -111 -313 -169 -25 -32 -60 -110 -70 -158 -23 -107 -34
-320 -28 -543 3 -124 6 -981 7 -1905 l0 -1680 -29 -135 c-32 -147 -102 -328
-145 -380 -15 -17 -27 -36 -27 -42 0 -20 -161 -217 -256 -312 -209 -210 -438
-361 -699 -461 -11 -4 -87 -25 -170 -45 l-150 -38 3928 -1 3927 -1 0 1510 0
1510 -217 2 -217 3 -42 135 c-23 74 -52 168 -64 208 l-22 72 -62 0 -62 0 -57
188 c-31 103 -57 190 -57 195 0 4 26 7 59 7 l59 0 -23 79 c-29 100 -39 118
-78 141 -41 26 -78 25 -111 -1 -23 -18 -26 -26 -20 -53 5 -24 250 -834 288
-953 l7 -23 -215 0 -215 0 -40 128 c-268 858 -284 921 -264 1038 15 86 64 185
111 224 68 56 132 74 267 74 105 0 129 -3 193 -26 212 -76 367 -214 452 -402
15 -33 94 -277 175 -541 81 -264 149 -482 151 -484 2 -2 4 721 4 1607 l0 1612
-3117 -1 -3118 -1 125 -24z m619 -1767 c208 -73 366 -213 451 -401 15 -33 89
-261 164 -506 75 -245 143 -464 151 -488 l14 -42 -217 2 -216 3 -42 135 c-23
74 -52 168 -64 208 l-22 72 -62 0 -62 0 -57 188 c-31 103 -57 190 -57 195 0 4
26 7 59 7 l59 0 -23 79 c-29 100 -39 118 -78 141 -41 26 -78 25 -111 -1 -23
-18 -26 -26 -20 -53 5 -24 250 -834 288 -953 l7 -23 -215 0 -215 0 -40 128
c-267 854 -284 921 -264 1036 13 75 48 157 87 203 31 37 112 79 176 93 78 16
227 5 309 -23z m2550 0 c208 -73 366 -213 451 -401 15 -33 89 -261 164 -506
75 -245 143 -464 151 -488 l14 -42 -217 2 -216 3 -42 135 c-23 74 -52 168 -64
208 l-22 72 -62 0 -62 0 -57 188 c-31 103 -57 190 -57 195 0 4 26 7 59 7 l59
0 -23 79 c-29 100 -39 118 -78 141 -41 26 -78 25 -111 -1 -23 -18 -26 -26 -20
-53 5 -24 250 -834 288 -953 l7 -23 -215 0 -215 0 -40 128 c-267 854 -284 921
-264 1036 13 75 48 157 87 203 31 37 112 79 176 93 78 16 227 5 309 -23z
m-1534 -69 c14 -46 48 -161 77 -255 l52 -173 98 0 c54 0 98 2 98 6 0 4 -91
309 -146 487 -5 16 10 17 210 17 l214 0 11 -32 c5 -18 98 -325 206 -683 108
-357 202 -669 210 -693 l14 -42 -216 2 -216 3 -85 283 -85 282 -99 0 c-54 0
-98 -3 -98 -7 0 -5 38 -132 84 -283 l84 -275 -211 -3 c-115 -1 -212 0 -214 2
-3 3 -325 1056 -428 1399 l-14 47 214 0 214 0 26 -82z m2931 -115 l61 -198
-112 -5 -112 -5 157 -523 157 -522 -215 2 -214 3 -157 520 -157 520 -115 3
-116 3 -48 157 c-26 86 -54 176 -61 200 l-13 42 442 0 442 0 61 -197z m-3503
-2263 c37 -6 88 -20 115 -32 57 -27 141 -109 166 -162 35 -73 -11 -146 -91
-146 -40 0 -70 24 -98 80 -20 40 -32 51 -72 67 -71 27 -172 23 -250 -9 -163
-68 -339 -232 -421 -394 -110 -216 -100 -537 22 -681 44 -52 123 -85 202 -84
169 1 340 96 460 254 81 106 156 291 112 274 -27 -10 -241 -55 -295 -62 -79
-10 -122 20 -123 87 0 25 8 46 24 65 22 25 34 29 128 39 56 7 165 26 241 43
168 38 196 39 226 7 31 -33 36 -91 16 -183 -41 -184 -128 -346 -255 -473 -161
-160 -331 -230 -559 -230 -150 0 -246 37 -332 127 -177 185 -205 582 -62 868
116 230 366 447 603 523 100 32 144 36 243 22z m3084 -24 c24 -21 28 -31 28
-79 0 -45 -5 -60 -25 -82 -23 -25 -29 -27 -85 -21 -43 4 -98 -2 -197 -22
l-138 -26 0 -544 c0 -373 4 -556 11 -582 13 -44 -1 -82 -42 -112 -38 -28 -133
-28 -161 0 -20 20 -21 28 -19 611 l2 592 -23 -6 c-13 -3 -67 -14 -121 -25 -54
-11 -106 -24 -117 -30 -10 -5 -36 -10 -58 -10 -78 0 -117 82 -77 160 21 41 49
53 106 46 59 -8 286 37 333 65 23 14 50 19 101 19 62 0 371 52 383 65 15 14
73 3 99 -19z m-1157 -12 c49 -20 60 -38 60 -99 0 -97 -53 -137 -152 -115 -47
11 -79 8 -283 -24 -126 -20 -236 -39 -242 -41 -10 -3 -13 -48 -13 -180 0 -160
2 -175 18 -175 49 0 431 64 457 77 17 8 48 13 70 11 32 -2 44 -9 62 -37 42
-63 23 -173 -33 -187 -14 -4 -51 -4 -82 -1 -47 5 -365 -35 -469 -58 l-23 -5 0
-222 c0 -183 3 -230 17 -266 25 -67 11 -111 -47 -139 -88 -45 -187 -20 -205
51 -7 30 -5 48 10 85 16 39 20 77 22 245 4 186 2 203 -18 250 -23 55 -22 113
6 166 21 41 22 346 1 369 -36 41 -39 128 -6 166 10 11 20 33 24 48 19 80 206
94 206 15 0 -10 3 -18 6 -18 32 0 479 74 509 85 53 18 58 18 105 -1z m1989 -9
c29 -7 78 -26 108 -42 61 -30 142 -113 144 -147 4 -81 -25 -116 -99 -116 -59
1 -91 18 -111 61 -21 45 -76 71 -161 77 -116 8 -242 -41 -338 -131 -90 -86
-132 -183 -112 -259 24 -86 81 -90 337 -22 164 44 188 48 298 48 130 1 175
-10 242 -61 126 -96 133 -347 15 -529 -130 -198 -369 -334 -645 -365 -83 -9
-120 -9 -169 1 -160 31 -287 154 -288 278 0 77 44 132 108 132 42 0 70 -30 97
-101 53 -139 159 -169 364 -103 108 34 212 95 285 167 88 86 109 130 114 242
4 81 2 93 -18 117 -11 15 -39 32 -60 38 -51 14 -173 -1 -295 -35 -265 -74
-401 -83 -489 -31 -55 32 -79 65 -100 135 -42 143 7 294 142 435 169 175 434
264 631 211z m-3141 -9 c54 -28 71 -109 38 -173 -14 -29 -16 -91 -16 -565 1
-443 3 -537 15 -558 37 -64 -2 -142 -80 -160 -40 -9 -57 -8 -108 12 -51 20
-73 103 -42 158 12 21 14 115 14 560 0 445 -2 539 -14 560 -45 78 27 180 128
180 21 0 50 -6 65 -14z"/>
<path d="M4122 4636 c-12 -16 -22 -26 -22 -22 0 4 -27 -14 -60 -39 -33 -25
-60 -44 -60 -42 0 3 -14 -8 -31 -24 -17 -16 -36 -26 -43 -22 -6 3 -8 3 -4 -2
4 -4 -13 -24 -37 -43 -25 -19 -42 -39 -38 -45 3 -5 1 -7 -5 -3 -6 3 -59 -31
-119 -76 -59 -45 -205 -155 -324 -245 l-216 -163 -6 -242 c-4 -133 -7 -348 -7
-478 l0 -237 -622 -7 c-343 -4 -628 -7 -635 -8 -6 -1 -40 -24 -75 -51 -35 -27
-96 -74 -136 -104 -40 -31 -69 -60 -65 -65 3 -7 1 -8 -5 -4 -7 4 -82 -46 -174
-116 -90 -67 -166 -122 -170 -120 -5 1 -8 -2 -8 -7 0 -8 -289 -231 -302 -232
-4 0 -22 -15 -40 -32 -19 -18 -62 -52 -95 -77 -34 -24 -59 -49 -56 -54 3 -5 1
-6 -4 -3 -9 6 -113 -67 -113 -79 0 -16 91 -160 135 -214 60 -74 175 -184 226
-217 60 -40 182 -94 255 -114 51 -14 106 -20 190 -20 133 -1 179 11 300 80 53
30 71 47 104 101 64 104 74 149 61 292 -11 115 -15 129 -70 257 -32 74 -57
141 -54 148 4 10 139 13 690 13 l684 0 -3 -382 c-4 -355 -6 -390 -27 -478 -30
-131 -60 -220 -82 -252 -11 -15 -19 -34 -19 -42 0 -8 -15 -36 -32 -63 -18 -27
-40 -62 -48 -77 -21 -42 -141 -167 -213 -225 -82 -65 -264 -156 -352 -177 -38
-8 -92 -22 -120 -29 -103 -28 -216 -38 -410 -38 -184 0 -211 3 -340 30 -163
35 -226 58 -430 158 -218 107 -408 260 -563 453 -65 81 -78 92 -80 73 -4 -28
27 -159 39 -167 5 -3 24 -38 43 -78 89 -192 270 -409 443 -528 296 -203 670
-355 1089 -442 167 -35 177 -36 398 -36 l226 0 159 39 c258 64 440 153 671
330 152 117 384 368 450 487 11 22 32 57 45 79 14 22 34 65 45 95 11 30 27 69
35 85 8 17 26 89 41 160 l27 130 -4 475 c-2 261 -3 975 -1 1585 2 611 -1 1125
-5 1144 l-9 35 -22 -28z"/>
<path d="M0 2278 l0 -2278 1108 1 c609 0 1103 2 1097 5 -5 2 -86 20 -180 39
-250 52 -441 115 -690 227 -124 55 -172 82 -328 182 -109 69 -101 63 -203 162
-200 195 -384 520 -384 681 0 36 23 46 44 19 230 -285 384 -421 606 -535 179
-92 310 -141 465 -173 128 -27 157 -30 340 -30 142 0 224 4 285 16 352 66 508
142 691 333 74 77 100 115 166 243 50 95 78 174 98 275 31 152 33 189 34 528
l1 327 -665 0 c-366 0 -665 -3 -665 -6 0 -3 24 -62 54 -132 57 -133 76 -216
76 -335 0 -83 -20 -147 -72 -231 -37 -58 -54 -74 -109 -106 -129 -73 -170 -84
-309 -84 -139 1 -206 14 -323 65 -116 51 -199 112 -314 234 -130 137 -209 269
-250 417 -22 81 -26 114 -27 258 l-1 165 44 100 c54 121 127 200 236 258 127
68 114 67 1273 67 l1032 0 0 485 0 485 -1406 2 -1407 3 -37 70 c-20 39 -78
152 -128 252 -50 100 -104 205 -121 235 l-31 53 0 -2277z"/>
</g>
</svg>
